<svg width="18" height="19" viewBox="0 0 18 19" fill="none" xmlns="http://www.w3.org/2000/svg">
<path fill-rule="evenodd" clip-rule="evenodd" d="M9.58886 0.616567C9.2697 0.277034 8.7303 0.277034 8.41114 0.616567L0.254378 9.74345C0.0905577 9.92675 0 10.164 0 10.4098V17.0027C0 17.7193 0.576 18.301 1.28571 18.301H5.14286C5.85257 18.301 6.42857 17.7193 6.42857 17.0027V11.8094C6.42857 11.0927 7.00457 10.5111 7.71429 10.5111H10.2857C10.9954 10.5111 11.5714 11.0927 11.5714 11.8094V17.0027C11.5714 17.7193 12.1474 18.301 12.8571 18.301H16.7143C17.424 18.301 18 17.7193 18 17.0027V10.4098C18 10.164 17.9094 9.92675 17.7456 9.74345L9.58886 0.616567Z" fill="#D6D9E0"/>
</svg>
