<svg width="17" height="17" viewBox="0 0 17 17" fill="none" xmlns="http://www.w3.org/2000/svg">
<path fill-rule="evenodd" clip-rule="evenodd" d="M15.6333 12.0558C16.3329 12.0558 16.9 12.6048 16.9 13.282V15.1213C16.9 15.7985 16.3329 16.3475 15.6333 16.3475H6.76667C6.06711 16.3475 5.5 15.7985 5.5 15.1213V13.282C5.5 12.6048 6.06711 12.0558 6.76667 12.0558H15.6333ZM2.125 12.0558C3.2986 12.0558 4.25 13.0166 4.25 14.2017C4.25 15.3868 3.2986 16.3475 2.125 16.3475C0.951395 16.3475 0 15.3868 0 14.2017C0 13.0166 0.951395 12.0558 2.125 12.0558ZM15.6333 6.04752C16.3329 6.04752 16.9 6.5965 16.9 7.27371V9.11299C16.9 9.7902 16.3329 10.3392 15.6333 10.3392H6.76667C6.06711 10.3392 5.5 9.7902 5.5 9.11299V7.27371C5.5 6.5965 6.06711 6.04752 6.76667 6.04752H15.6333ZM2.125 6.04752C3.2986 6.04752 4.25 7.00824 4.25 8.19335C4.25 9.37846 3.2986 10.3392 2.125 10.3392C0.951395 10.3392 0 9.37846 0 8.19335C0 7.00824 0.951395 6.04752 2.125 6.04752ZM2.125 0.0391846C3.2986 0.0391846 4.25 0.999907 4.25 2.18502C4.25 3.37013 3.2986 4.33085 2.125 4.33085C0.951395 4.33085 0 3.37013 0 2.18502C0 0.999907 0.951395 0.0391846 2.125 0.0391846ZM15.6333 0.0391846C16.3329 0.0391846 16.9 0.588169 16.9 1.26538V3.10466C16.9 3.78187 16.3329 4.33085 15.6333 4.33085H6.76667C6.06711 4.33085 5.5 3.78187 5.5 3.10466V1.26538C5.5 0.588169 6.06711 0.0391846 6.76667 0.0391846H15.6333Z" fill="#D6D9E0"/>
</svg>
