<svg xmlns="http://www.w3.org/2000/svg" version="1.1" xmlns:xlink="http://www.w3.org/1999/xlink" xmlns:svgjs="http://svgjs.com/svgjs" width="512" height="512" x="0" y="0" viewBox="0 0 32 32" style="enable-background:new 0 0 512 512" xml:space="preserve" class=""><g><path fill="#fbb457" fill-rule="evenodd" d="M16 28c6.627 0 12-5.373 12-12S22.627 4 16 4 4 9.373 4 16s5.373 12 12 12zM9.4 13.5a2.1 2.1 0 1 1 4.2 0 .4.4 0 0 0 .8 0 2.9 2.9 0 0 0-5.8 0 .4.4 0 0 0 .8 0zm9 0a2.1 2.1 0 1 1 4.2 0 .4.4 0 0 0 .8 0 2.9 2.9 0 0 0-5.8 0 .4.4 0 0 0 .8 0zM9.6 20c0-.22.18-.4.4-.4h12a.4.4 0 0 1 0 .8H10a.4.4 0 0 1-.4-.4z" clip-rule="evenodd" data-original="#0fbcf9" class=""></path></g></svg>