<svg xmlns="http://www.w3.org/2000/svg" version="1.1" xmlns:xlink="http://www.w3.org/1999/xlink" xmlns:svgjs="http://svgjs.com/svgjs" width="512" height="512" x="0" y="0" viewBox="0 0 32 32" style="enable-background:new 0 0 512 512" xml:space="preserve"><g><path fill="#ff6b6b" fill-rule="evenodd" d="M16 28c6.627 0 12-5.373 12-12S22.627 4 16 4 4 9.373 4 16s5.373 12 12 12zm-4.5-14a1.5 1.5 0 1 0 0-3 1.5 1.5 0 0 0 0 3zm9 0a1.5 1.5 0 1 0 0-3 1.5 1.5 0 0 0 0 3zM8.8 22.346a.4.4 0 0 0 .546-.146 7.597 7.597 0 0 1 6.584-3.8 7.597 7.597 0 0 1 6.583 3.8.4.4 0 0 0 .693-.4c-1.452-2.51-4.167-4.2-7.276-4.2s-5.824 1.69-7.276 4.2a.4.4 0 0 0 .146.546z" clip-rule="evenodd" data-original="#ff6b6b"></path></g></svg>