<svg xmlns="http://www.w3.org/2000/svg" version="1.1" xmlns:xlink="http://www.w3.org/1999/xlink" xmlns:svgjs="http://svgjs.com/svgjs" width="512" height="512" x="0" y="0" viewBox="0 0 32 32" style="enable-background:new 0 0 512 512" xml:space="preserve" class=""><g><path fill="#35d165" fill-rule="evenodd" d="M16 28c6.627 0 12-5.373 12-12S22.627 4 16 4 4 9.373 4 16s5.373 12 12 12zM9.4 13.5a2.1 2.1 0 1 1 4.2 0 .4.4 0 0 0 .8 0 2.9 2.9 0 0 0-5.8 0 .4.4 0 0 0 .8 0zm9 0a2.1 2.1 0 1 1 4.2 0 .4.4 0 0 0 .8 0 2.9 2.9 0 0 0-5.8 0 .4.4 0 0 0 .8 0zm-9.6 5.154a.4.4 0 0 1 .546.146 7.597 7.597 0 0 0 6.584 3.8 7.597 7.597 0 0 0 6.583-3.8.4.4 0 0 1 .693.4c-1.452 2.51-4.167 4.2-7.276 4.2s-5.824-1.69-7.276-4.2a.4.4 0 0 1 .146-.546z" clip-rule="evenodd" data-original="#0fbcf9" class=""></path></g></svg>