<svg xmlns="http://www.w3.org/2000/svg" version="1.1" xmlns:xlink="http://www.w3.org/1999/xlink" xmlns:svgjs="http://svgjs.com/svgjs" width="512" height="512" x="0" y="0" viewBox="0 0 32 32" style="enable-background:new 0 0 512 512" xml:space="preserve" class=""><g><path fill="#ffb26b" fill-rule="evenodd" d="M16 28c6.627 0 12-5.373 12-12S22.627 4 16 4 4 9.373 4 16s5.373 12 12 12zm-4.5-14a1.5 1.5 0 1 0 0-3 1.5 1.5 0 0 0 0 3zm9 0a1.5 1.5 0 1 0 0-3 1.5 1.5 0 0 0 0 3zm-9.216 7.206a.4.4 0 0 0 .565.016 7.597 7.597 0 0 1 7.393-1.77.4.4 0 1 0 .227-.767 8.397 8.397 0 0 0-8.17 1.956.4.4 0 0 0-.016.565z" clip-rule="evenodd" data-original="#ff6b6b" class=""></path></g></svg>